# xmcd
#
# Track frame offsets:
#	150
#	18252
#	25930
#	38257
#	46315
#	64602
#	73300
#	85587
#	101610
#	109872
#	120380
#	129212
#	138067
#	148975
#	163345
#	175015
#	182150
#	190715
#	199390
#	219587
#	235415
#	249115
#	263460
#	275682
#	283852
#
# Disc length: 3971 seconds
#
# Revision: 1
# Processed by: cddbd v1.5.1PL0 Copyright (c) Steve Scherf et al.
# Submitted via: CDex 1.50Beta5
#
DISCID=620f8119
DTITLE=Various Artist - テレビのうた [CD1]
DYEAR=1900
DGENRE=(Doyo)
TTITLE0=となりのトトロ
TTITLE1=アップルパイひとつ
TTITLE2=さんぽ
TTITLE3=ふしぎなあのこはすてきなこ
TTITLE4=お料理行進曲
TTITLE5=すうじのうた
TTITLE6=パジャマでおじゃま
TTITLE7=ふねがゆく
TTITLE8=とんでったバナナ
TTITLE9=銀ちゃんのラブレター
TTITLE10=ホ!ホ!ホ!
TTITLE11=わらいごえっていいな
TTITLE12=オーレ!チャンプ
TTITLE13=おどるポンポコリン
TTITLE14=はにがきじょうずかな
TTITLE15=ごうがいっぽあったとさ
TTITLE16=どんな色がすき
TTITLE17=そうだったらいいのにな
TTITLE18=はじめてのチュウ
TTITLE19=おべんとばこのうた
TTITLE20=はたらくくるま<1>
TTITLE21=まる・さんかく・しかく
TTITLE22=はしれちょうとっきゅう
TTITLE23=おんまはみんな
TTITLE24=ぼくらはみらいのたんけんたい
EXTD=
EXTT0=
EXTT1=
EXTT2=
EXTT3=
EXTT4=
EXTT5=
EXTT6=
EXTT7=
EXTT8=
EXTT9=
EXTT10=
EXTT11=
EXTT12=
EXTT13=
EXTT14=
EXTT15=
EXTT16=
EXTT17=
EXTT18=
EXTT19=
EXTT20=
EXTT21=
EXTT22=
EXTT23=
EXTT24=
PLAYORDER=
